<mxfile host="65bd71144e">
    <diagram id="w0ols-IHvRm9ISl3N26n" name="Page-1">
        <mxGraphModel dx="614" dy="488" grid="1" gridSize="10" guides="1" tooltips="1" connect="1" arrows="1" fold="1" page="1" pageScale="1" pageWidth="827" pageHeight="1169" math="0" shadow="0">
            <root>
                <mxCell id="0"/>
                <mxCell id="1" parent="0"/>
                <mxCell id="2" value="" style="whiteSpace=wrap;html=1;strokeColor=#F0110A;" parent="1" vertex="1">
                    <mxGeometry x="370" y="30" width="170" height="310" as="geometry"/>
                </mxCell>
                <mxCell id="3" value="View Items" style="whiteSpace=wrap;html=1;strokeColor=#F0110A;align=center;imageWidth=36;imageHeight=30;fillStyle=solid;fontColor=#CCCC00;fontSize=17;" parent="1" vertex="1">
                    <mxGeometry x="390" y="50" width="126" height="24" as="geometry"/>
                </mxCell>
                <mxCell id="4" value="Purchase Item" style="whiteSpace=wrap;html=1;strokeColor=#F0110A;align=center;imageWidth=36;imageHeight=30;fillStyle=solid;fontColor=#CCCC00;fontSize=17;" parent="1" vertex="1">
                    <mxGeometry x="390" y="90" width="130" height="30" as="geometry"/>
                </mxCell>
                <mxCell id="6" value="Instant Pay" style="whiteSpace=wrap;html=1;strokeColor=#F0110A;align=center;imageWidth=36;imageHeight=30;fillStyle=solid;fontColor=#CCCC00;fontSize=17;" parent="1" vertex="1">
                    <mxGeometry x="390" y="140" width="130" height="30" as="geometry"/>
                </mxCell>
                <mxCell id="7" value="Register" style="whiteSpace=wrap;html=1;strokeColor=#F0110A;align=center;imageWidth=36;imageHeight=30;fillStyle=solid;fontColor=#CCCC00;fontSize=17;" parent="1" vertex="1">
                    <mxGeometry x="390" y="190" width="130" height="30" as="geometry"/>
                </mxCell>
                <mxCell id="8" value="Track Order" style="whiteSpace=wrap;html=1;strokeColor=#F0110A;align=center;imageWidth=36;imageHeight=30;fillStyle=solid;fontColor=#CCCC00;fontSize=17;" parent="1" vertex="1">
                    <mxGeometry x="390" y="240" width="130" height="30" as="geometry"/>
                </mxCell>
                <mxCell id="9" value="Add Items" style="whiteSpace=wrap;html=1;strokeColor=#F0110A;align=center;imageWidth=36;imageHeight=30;fillStyle=solid;fontColor=#CCCC00;fontSize=17;" parent="1" vertex="1">
                    <mxGeometry x="390" y="290" width="130" height="30" as="geometry"/>
                </mxCell>
                <mxCell id="15" value="" style="shape=stencil(lVhbctswDDyNfzEkSILkd5reIzNxGk/TOOM4fdy+UD1UDEjaJn+yxDXxXDx26eb18e5lv+Pwej4dv+9/He7Pj7v0Zcd8eH7cnw5nfdql2126eTie9t9Ox7fn+8vvl7vp5PT04/hz+offF1ztVGVCcfhzeROZWv/35usF8HR4vgYkys0CEoW4DRCmkjyA6zagRBL2AAGAHCgVC8jUACBF6tUCKqWwDWCh3A2AIzUBACaxZuVGCZiVw/g8AKlQaNuA2IbVByAz9QIAZUg8ACUMrdYBmWq2gEoFWEkB3fpB9A1DHdgCaqAOlOZCPViAWgn4IaXxeQZUkgRjyemgGSIgvHP3N7QwhFwPbyG2nm4a8MAPojrYaG1MCVhJug++pn8BQkONmIPXgYHj1CZsU1RpASWQSlytDlKoAqVbJrY0o8FXgacVkK3jssDwVkC0vJSUBABrqBGTzQfuFIGV2oKXlDUKuEH94KmyUUSA5HkpCr6BKVhPa9Im5OlI7ETSaM0YYJVu1NAF7PNHKAI/q8rFRlKiDhJabSpWAYZersqrTmFIGOrk4ixKDfDFlAmulMBapWEqVl+lZfT/ZZhjTk2KwF9NfN50SF9tds9Vw4DoSwWKzkCFGEmUBrtdVWfUMCh/RgdoOAuar2yxwx6mLjh7ugFFnZJL9DpE1FYxZfZWiuiG6Dlb/VBQ4qiVvKMRoer56mottlHy1JJh4VQTuVquiQACTws3O5NSBVVwqtsuKkhAEdTEdGV2dsnmefnE+b4kd4FM0bVjdBfIION1QKdsAUlGBVrvv0JY+ExgEK0gCs5mFarYwNZ+hoFQXUbPeNVbBKQ2jwp21R8VxEhzRZoBDc48ykhi+UKdiXw9xar1hJoBsbC0RZl9t/Q6Ii5k6tCuRWcimw8aYBkkUK6UbcL1Oiaz9Wa7+dKgvkQi8WyUGZBHsdiaktzQ03Gzrc2Ka8G0fqHyn3311PoOxzASR5Ia3UCgRfpoNiB5tIW08hTcN7M/n8ug8Q1926IJLqi98ySmPkT9YwxUHUA9hqbOsrZfQKN28BuMCodO7UfZZn+iiqJ6MetESEclDj4c58Mn9yM48ZcLmDDIZqsOOvsEOD1qN+XqYIAlYRpGfV0OmEyzP4/2FtMk6DYjMCPboq/IuI4X798yiPKD5yvc7CzlaXB1tJx8NYdQ6zgZ1HWCEebkisd4dNAfDAkFoCFkirniAXCr+P81pD68LzEfDk9Plx3o9Xe/9NRXl4Vpuv0L);lineShape=1;fillStyle=solid;strokeColor=#F0110A;fontSize=17;fontColor=#CCCC00;" parent="1" vertex="1">
                    <mxGeometry x="133.04749897439513" y="45.66232047883477" width="40.06322054916836" height="35.23016889325447" as="geometry"/>
                </mxCell>
                <mxCell id="16" value="" style="shape=stencil(lVfbcuMwCP0avzISSEh67nb/ozNNN5nNJp003cvfLxmP3IAdPH5zbE6AwxGggZ4+9i/vuwHDx/Vy/rn7c3i97gf6NiAeTvvd5XCVp4GeB3p6O192Py7nz9Pr+Pv95WZ5e/p1/n37h78jjiuUcENh+De+yUDji++j/fFwurdvgEnZxwiMjwElABYFQAImF8DaAzYoxQW0qADEENgBRMgakCrE5AAQUtMkCcALiSyrnIC8kDLEqgBfWS0DGErWgArZobVh/9wBtULzABWQFaBJSPkxIIYAQWfdCGJzXBTImteWITlianEWUwFyPNRoCyFpNV/f1YQk6nM85AKhWECrjwEpzZJukBz1kYiJbQ7osCRHmI0HhuSoD4VWLaYmcnW0gaGTOAGw07AMSMA6h9pcfRNCNIDqekgIrEOq0xFZLlyylRZAcArHBUqyALdtiJaiBTSncMJJTTZpcjxIXYsRX+j9eRkgHnSfkcJ54hOpmZBEGuydaZqFxG77rrn3iDt5e2otadZmGmTHA0cgHdJdq1oWU+0j6r4LOAAqEGd9xqMJRc1aG9LJwgoAtwC4N8ZJS6U3z0X7WfNeGSgyRDdNLIKge8zKSEx2b1iZudkuJitDPVthr2wNctZ1wVbWErY7w9reY5eSlcWqWj79xW0a9hM9XU/L1ZXyarkhVM9eZo6WQ+xT69HIiTp8Xz1CD6OxJ09tCYq1d0+8zC/aYt8gWnsvniz8xA35Ss8KW/hkkb+Ox6+XDLOq+fH1sPmesGovD1+XkrfD8Tjeae6/20uMvBovQPT8Hw==);lineShape=1;fillStyle=solid;strokeColor=#F0110A;fontSize=17;fontColor=#CCCC00;" parent="1" vertex="1">
                    <mxGeometry x="146.2351256633109" y="76.83099099592084" width="7.2045651026611495" height="40.94386130573105" as="geometry"/>
                </mxCell>
                <mxCell id="17" value="" style="shape=stencil(lVbLctswDPwaXTEkwRfOafIfmYlTa+LaGcdJm78PNBqqAm1t2ptM75LAAlhy4Lu3/ePrbgju7XI+vex+j0+X/cA/hhDG4353Hi/6NfD9wHfPp/Pu5/n0fnyaf78+Tsjp69fpY9rhz8yTSL5OrOA+55UQieeVh5lwGI8rQmWSZAjsKJRtQo5UxRBioRy2CSmSY0NIlXzeJkRHyYZUPEXeJoRM3hlC1ZW0TfCRsiWI5gCS9p6qlVWEogBZSewB3jlyDqjUl0EP8HEbz8TZ4jMJCMi3LljwTAXgtQmilVSoAoU0uw6fKIP4HdVg8Z4SwAeKNv5SoZ7apV0PJYoAr/W3XV0i3N87KrbCZZmk2wSmlPuIAhgDry1RLKHAkvmrHFRTNMq+UrKTqUVjlENtGq66IgF30ZDYllnbDpVZk2abg/Z1RXUIVG0OOjgOmIX0k6l4ASnoWPken4CosXnbyloqiMeTdPgI+0jNsVNUiwz2X2xnKVkhB/ePdnCqKozatNe/qP6gS2MfT8nfGJ3IFR71aGrHN0JO2FmkXS7LhSZtkG5nwORsyXjp2q0bkK2mqkIBIWnEnblMNxa4Y9UZusHUHdCtX/pLXO0M7K9jLj0euaOEVqMV3gN8pNDjCyiymkI3ZaG9e27j1Tmtl+qBKJ7a55uhPuoJpbu+oUmsXgNLhUN7k2yeYLtUGx21xJSClWhybzDIk0bWWbQIgghXzy6tArLS/36c/gNBP/6+hZ/Hw2F+Sq//79/OujS/u/n+Cw==);lineShape=1;fillStyle=solid;strokeColor=#F0110A;fontSize=17;fontColor=#CCCC00;" parent="1" vertex="1">
                    <mxGeometry x="121.78997493198835" y="90.02335140222362" width="22.200290072047096" height="15.751098721701851" as="geometry"/>
                </mxCell>
                <mxCell id="18" value="" style="shape=stencil(lVbZbuMwDPwavxISqfO57f5HgaYbo2lSpNnr75deQ11Ttqfom6NwxGs41CB378fHt8PA7v12vbwcfo1Pt+Mg9wPzeD4eruNNvwZ5GOTu+XI9fL9efpyf5t9vj5Pl9PV6+Tnd8HvGVYppArH7Mx84iuHfwbfZ/DSeF+Ys5L2xr+Tdvr0ISTD2PlKRfUAQymwA6tLFfUAM5CxAcAopUOgAhTwIKQeKYgBBcwBJV6FSDSA5CgiQSKyH9FHnbUAhLhaQKRYA0D5HA8jSfG4CvHPknEVUygm7sDGVRIyT6LKunmrFZbJ11ZOIG1EtuzVIRjl4YuthUYdNRCmUsnWhJ6CwWhTpYorN6TYgUOpGzsHWFekBegUDciggdOTIlDMMydscsqeAAJGS9ZASnOqiAXQEZ3KI4FoTO9WxUgUhKTecXwGAbmibOqmcQkLs0xzsBKVIleEEMfdlFTRBGvGqcRFNUKWyogbSbyVz6WbUkUd9yO2+Bb096kPoQ1KfEc0ok+9UoELZKCpM3ANQWb8MSGvpE6gzSrVsy5ojCZiHUHt6q+AHIAKiXLLUUJ8J5KCL3Fl6R9/Uc3tDaNK2cUFbCQZIl6ZVSsktxu2cyXd7WlUEvU0odvdLS2k7gX79aAkSsNcdbgukGSGlXy1Q9Yj24crep6aae/HYDnsmRiu9cfiDpG2Q9spprw9Nkne65exUMtSJ2KiyeHeC2q+kFG/lL75qPzXXj/8P6OfxdJrf38v/+we3Hs2PdXn4Cw==);lineShape=1;fillStyle=solid;strokeColor=#F0110A;fontSize=17;fontColor=#CCCC00;" parent="1" vertex="1">
                    <mxGeometry x="148.90104090738214" y="88.88610496944773" width="27.194710937428" height="11.187393861770829" as="geometry"/>
                </mxCell>
                <mxCell id="19" value="" style="shape=stencil(lVbLctswDPwaXTEgwec5Tf8jM3FqTV074zh9/H2haqgYlLST3mQaSwJYLIBBHt6OT6+HwfPb7Xr5fvg1Pt+Og3wZvB/Px8N1vOnXII+DPLxcrodv18v7+Xn+/fo0WU5fPy4/pxt+z7iaybkJ5fnPfOIiSfh38nUGnMbzHSBn4mgA4onrPiDpfdkAgpAHgBgoFAPQE5F9gN5XbAwfb24ChKnYGDSqAl5wGnQygJpaGrYBgaoNuhZywCXnW04WQKUIeKgkbHljJmbAA4lfPeBAkijFVQQoRxQtazVSBTTzyh9pJzv2bAOuTAHEy5QsAyVTBP4rAcHaR2JUdRRtfoqQQ8LpZVB8K6rtfGqCbEUURxUQ5qQvCX0hI0Ck0gEC1I3KIFnOSsIvFIpd0Fp0gLQJ0AnNUwBZVZfWZedx0NnyrC0QCU3T6qUXjiuYONcDKmgWeUP6GTyw6o+qzATsPbnufmUN0KzK6TIUyAP/18p0JMAfbgNmKYpCASlhVXVL4X7eHldpJxydHwm1Rm58LhNK8IRSqVvK9CSAlOp9yRadOKgD9bjaGKY0A5dU6tlK02P71Pc7B8e+chpt1XHL8vY8494fPM60L3QcMHkwPrQtsO/sK5qvqd8RfNuUtu1LX9UCRaka79p7bAnes6+2M2ZYo3frwCLL1vn2HojdJuigbDTiaGtUW2VGFPzvrvkJgH58rLYv4+k0b8b3//ersB7Na7Q8/gU=);lineShape=1;fillStyle=solid;strokeColor=#F0110A;fontSize=17;fontColor=#CCCC00;" parent="1" vertex="1">
                    <mxGeometry x="133.81247371162488" y="119.07837390842883" width="21.09947442230566" height="21.750140637770528" as="geometry"/>
                </mxCell>
                <mxCell id="20" value="" style="shape=stencil(rVbLbttADPwaXQkuuc9zmv5HgDi1UdcOHPf196XrrBKurAkK9CZLO15yhkNy0ruX7cPzZhJ+OZ+OXzc/d4/n7aSfJpHdYbs57c72NOn9pHdPx9Pmy+n4/fB4/f38cDl5efp2/HH5h19XXAiU2gUl/Pv1DUn+++Lz9fx+d3h3Xgqp+PNKra4DtBL7C0RIZB0QK7XiAMpU2zogNarqAJFJQQ6FSfwNiYlBDtU4YQfIFlJcB7RMNThAyZQZACrl7AGNSgEA+5wcoCplkIMBBlproaYQoD7pJsSA1lbGpFuijFiaP8+AShoAQIkHwAcsLZQ2QEVKF8oyhpQBSzWRDjdkCiBpk6nkkVYkXBVqg9IWEmDJbmDvhxpJEwS8OngGYANZ0sWzVEpX5jag9sqZAbHX75pwQ3kX4w1Vq1IK4w3I0ybTGFLqyqxZNAxJYx2s1OJAq/TmeRMQ2NqQt1zNlFDbaIty5S7NWhLqu3GLlHAni76YzOYQYMW08GhEygUKwwR642GtmuLC1QFMiLrQ2pLg/wkoNtN81qZ1AJ0phz4P5moKkNcUepeYZ1CAMygGit5CSaAQlzHrb4gKAcKUh0kd+yi+HRLFYRUw16ILqPoMbDlpoDCMwWE3adANTMnHH0r3+Mp59vGESALiX9jZti0BXY8p+h5Wcb9YrDFw3MrIjsKpEMe9zdgF/TT1Ha0ft2RAMItdAVt+se3YYAfB/OtW+/F5e3hboZ92+/11A3//fVy57dV1Xdf7Pw==);lineShape=1;fillStyle=solid;strokeColor=#F0110A;fontSize=17;fontColor=#CCCC00;" parent="1" vertex="1">
                    <mxGeometry x="149.97301570422087" y="120.96500451433963" width="25.2195494071251" height="16.415587703023675" as="geometry"/>
                </mxCell>
                <mxCell id="27" value="" style="shape=stencil(lVhbctswDDyNfzEkSILkd5reIzNxGk/TOOM4fdy+UD1UDEjaJn+yxDXxXDx26eb18e5lv+Pwej4dv+9/He7Pj7v0Zcd8eH7cnw5nfdql2126eTie9t9Ox7fn+8vvl7vp5PT04/hz+offF1ztVGVCcfhzeROZWv/35usF8HR4vgYkys0CEoW4DRCmkjyA6zagRBL2AAGAHCgVC8jUACBF6tUCKqWwDWCh3A2AIzUBACaxZuVGCZiVw/g8AKlQaNuA2IbVByAz9QIAZUg8ACUMrdYBmWq2gEoFWEkB3fpB9A1DHdgCaqAOlOZCPViAWgn4IaXxeQZUkgRjyemgGSIgvHP3N7QwhFwPbyG2nm4a8MAPojrYaG1MCVhJug++pn8BQkONmIPXgYHj1CZsU1RpASWQSlytDlKoAqVbJrY0o8FXgacVkK3jssDwVkC0vJSUBABrqBGTzQfuFIGV2oKXlDUKuEH94KmyUUSA5HkpCr6BKVhPa9Im5OlI7ETSaM0YYJVu1NAF7PNHKAI/q8rFRlKiDhJabSpWAYZersqrTmFIGOrk4ixKDfDFlAmulMBapWEqVl+lZfT/ZZhjTk2KwF9NfN50SF9tds9Vw4DoSwWKzkCFGEmUBrtdVWfUMCh/RgdoOAuar2yxwx6mLjh7ugFFnZJL9DpE1FYxZfZWiuiG6Dlb/VBQ4qiVvKMRoer56mottlHy1JJh4VQTuVquiQACTws3O5NSBVVwqtsuKkhAEdTEdGV2dsnmefnE+b4kd4FM0bVjdBfIION1QKdsAUlGBVrvv0JY+ExgEK0gCs5mFarYwNZ+hoFQXUbPeNVbBKQ2jwp21R8VxEhzRZoBDc48ykhi+UKdiXw9xar1hJoBsbC0RZl9t/Q6Ii5k6tCuRWcimw8aYBkkUK6UbcL1Oiaz9Wa7+dKgvkQi8WyUGZBHsdiaktzQ03Gzrc2Ka8G0fqHyn3311PoOxzASR5Ia3UCgRfpoNiB5tIW08hTcN7M/n8ug8Q1926IJLqi98ySmPkT9YwxUHUA9hqbOsrZfQKN28BuMCodO7UfZZn+iiqJ6MetESEclDj4c58Mn9yM48ZcLmDDIZqsOOvsEOD1qN+XqYIAlYRpGfV0OmEyzP4/2FtMk6DYjMCPboq/IuI4X798yiPKD5yvc7CzlaXB1tJx8NYdQ6zgZ1HWCEebkisd4dNAfDAkFoCFkirniAXCr+P81pD68LzEfDk9Plx3o9Xe/9NRXl4Vpuv0L);lineShape=1;fillStyle=solid;strokeColor=#F0110A;fontSize=17;fontColor=#CCCC00;" parent="1" vertex="1">
                    <mxGeometry x="128.46752404240675" y="244.82999999999998" width="40.06322054916836" height="35.23016889325447" as="geometry"/>
                </mxCell>
                <mxCell id="28" value="" style="shape=stencil(lVfbcuMwCP0avzISSEh67nb/ozNNN5nNJp003cvfLxmP3IAdPH5zbE6AwxGggZ4+9i/vuwHDx/Vy/rn7c3i97gf6NiAeTvvd5XCVp4GeB3p6O192Py7nz9Pr+Pv95WZ5e/p1/n37h78jjiuUcENh+De+yUDji++j/fFwurdvgEnZxwiMjwElABYFQAImF8DaAzYoxQW0qADEENgBRMgakCrE5AAQUtMkCcALiSyrnIC8kDLEqgBfWS0DGErWgArZobVh/9wBtULzABWQFaBJSPkxIIYAQWfdCGJzXBTImteWITlianEWUwFyPNRoCyFpNV/f1YQk6nM85AKhWECrjwEpzZJukBz1kYiJbQ7osCRHmI0HhuSoD4VWLaYmcnW0gaGTOAGw07AMSMA6h9pcfRNCNIDqekgIrEOq0xFZLlyylRZAcArHBUqyALdtiJaiBTSncMJJTTZpcjxIXYsRX+j9eRkgHnSfkcJ54hOpmZBEGuydaZqFxG77rrn3iDt5e2otadZmGmTHA0cgHdJdq1oWU+0j6r4LOAAqEGd9xqMJRc1aG9LJwgoAtwC4N8ZJS6U3z0X7WfNeGSgyRDdNLIKge8zKSEx2b1iZudkuJitDPVthr2wNctZ1wVbWErY7w9reY5eSlcWqWj79xW0a9hM9XU/L1ZXyarkhVM9eZo6WQ+xT69HIiTp8Xz1CD6OxJ09tCYq1d0+8zC/aYt8gWnsvniz8xA35Ss8KW/hkkb+Ox6+XDLOq+fH1sPmesGovD1+XkrfD8Tjeae6/20uMvBovQPT8Hw==);lineShape=1;fillStyle=solid;strokeColor=#F0110A;fontSize=17;fontColor=#CCCC00;" parent="1" vertex="1">
                    <mxGeometry x="141.65515073132252" y="275.99867051708605" width="7.2045651026611495" height="40.94386130573105" as="geometry"/>
                </mxCell>
                <mxCell id="29" value="" style="shape=stencil(lVbLctswDPwaXTEkwRfOafIfmYlTa+LaGcdJm78PNBqqAm1t2ptM75LAAlhy4Lu3/ePrbgju7XI+vex+j0+X/cA/hhDG4353Hi/6NfD9wHfPp/Pu5/n0fnyaf78+Tsjp69fpY9rhz8yTSL5OrOA+55UQieeVh5lwGI8rQmWSZAjsKJRtQo5UxRBioRy2CSmSY0NIlXzeJkRHyYZUPEXeJoRM3hlC1ZW0TfCRsiWI5gCS9p6qlVWEogBZSewB3jlyDqjUl0EP8HEbz8TZ4jMJCMi3LljwTAXgtQmilVSoAoU0uw6fKIP4HdVg8Z4SwAeKNv5SoZ7apV0PJYoAr/W3XV0i3N87KrbCZZmk2wSmlPuIAhgDry1RLKHAkvmrHFRTNMq+UrKTqUVjlENtGq66IgF30ZDYllnbDpVZk2abg/Z1RXUIVG0OOjgOmIX0k6l4ASnoWPken4CosXnbyloqiMeTdPgI+0jNsVNUiwz2X2xnKVkhB/ePdnCqKozatNe/qP6gS2MfT8nfGJ3IFR71aGrHN0JO2FmkXS7LhSZtkG5nwORsyXjp2q0bkK2mqkIBIWnEnblMNxa4Y9UZusHUHdCtX/pLXO0M7K9jLj0euaOEVqMV3gN8pNDjCyiymkI3ZaG9e27j1Tmtl+qBKJ7a55uhPuoJpbu+oUmsXgNLhUN7k2yeYLtUGx21xJSClWhybzDIk0bWWbQIgghXzy6tArLS/36c/gNBP/6+hZ/Hw2F+Sq//79/OujS/u/n+Cw==);lineShape=1;fillStyle=solid;strokeColor=#F0110A;fontSize=17;fontColor=#CCCC00;" parent="1" vertex="1">
                    <mxGeometry x="117.20999999999998" y="289.19103092338884" width="22.200290072047096" height="15.751098721701851" as="geometry"/>
                </mxCell>
                <mxCell id="30" value="" style="shape=stencil(lVbZbuMwDPwavxISqfO57f5HgaYbo2lSpNnr75deQ11Ttqfom6NwxGs41CB378fHt8PA7v12vbwcfo1Pt+Mg9wPzeD4eruNNvwZ5GOTu+XI9fL9efpyf5t9vj5Pl9PV6+Tnd8HvGVYppArH7Mx84iuHfwbfZ/DSeF+Ys5L2xr+Tdvr0ISTD2PlKRfUAQymwA6tLFfUAM5CxAcAopUOgAhTwIKQeKYgBBcwBJV6FSDSA5CgiQSKyH9FHnbUAhLhaQKRYA0D5HA8jSfG4CvHPknEVUygm7sDGVRIyT6LKunmrFZbJ11ZOIG1EtuzVIRjl4YuthUYdNRCmUsnWhJ6CwWhTpYorN6TYgUOpGzsHWFekBegUDciggdOTIlDMMydscsqeAAJGS9ZASnOqiAXQEZ3KI4FoTO9WxUgUhKTecXwGAbmibOqmcQkLs0xzsBKVIleEEMfdlFTRBGvGqcRFNUKWyogbSbyVz6WbUkUd9yO2+Bb096kPoQ1KfEc0ok+9UoELZKCpM3ANQWb8MSGvpE6gzSrVsy5ojCZiHUHt6q+AHIAKiXLLUUJ8J5KCL3Fl6R9/Uc3tDaNK2cUFbCQZIl6ZVSsktxu2cyXd7WlUEvU0odvdLS2k7gX79aAkSsNcdbgukGSGlXy1Q9Yj24crep6aae/HYDnsmRiu9cfiDpG2Q9spprw9Nkne65exUMtSJ2KiyeHeC2q+kFG/lL75qPzXXj/8P6OfxdJrf38v/+we3Hs2PdXn4Cw==);lineShape=1;fillStyle=solid;strokeColor=#F0110A;fontSize=17;fontColor=#CCCC00;" parent="1" vertex="1">
                    <mxGeometry x="144.32106597539376" y="288.05378449061294" width="27.194710937428" height="11.187393861770829" as="geometry"/>
                </mxCell>
                <mxCell id="31" value="" style="shape=stencil(lVbLctswDPwaXTEgwec5Tf8jM3FqTV074zh9/H2haqgYlLST3mQaSwJYLIBBHt6OT6+HwfPb7Xr5fvg1Pt+Og3wZvB/Px8N1vOnXII+DPLxcrodv18v7+Xn+/fo0WU5fPy4/pxt+z7iaybkJ5fnPfOIiSfh38nUGnMbzHSBn4mgA4onrPiDpfdkAgpAHgBgoFAPQE5F9gN5XbAwfb24ChKnYGDSqAl5wGnQygJpaGrYBgaoNuhZywCXnW04WQKUIeKgkbHljJmbAA4lfPeBAkijFVQQoRxQtazVSBTTzyh9pJzv2bAOuTAHEy5QsAyVTBP4rAcHaR2JUdRRtfoqQQ8LpZVB8K6rtfGqCbEUURxUQ5qQvCX0hI0Ck0gEC1I3KIFnOSsIvFIpd0Fp0gLQJ0AnNUwBZVZfWZedx0NnyrC0QCU3T6qUXjiuYONcDKmgWeUP6GTyw6o+qzATsPbnufmUN0KzK6TIUyAP/18p0JMAfbgNmKYpCASlhVXVL4X7eHldpJxydHwm1Rm58LhNK8IRSqVvK9CSAlOp9yRadOKgD9bjaGKY0A5dU6tlK02P71Pc7B8e+chpt1XHL8vY8494fPM60L3QcMHkwPrQtsO/sK5qvqd8RfNuUtu1LX9UCRaka79p7bAnes6+2M2ZYo3frwCLL1vn2HojdJuigbDTiaGtUW2VGFPzvrvkJgH58rLYv4+k0b8b3//ersB7Na7Q8/gU=);lineShape=1;fillStyle=solid;strokeColor=#F0110A;fontSize=17;fontColor=#CCCC00;" parent="1" vertex="1">
                    <mxGeometry x="129.2324987796365" y="318.24605342959404" width="21.09947442230566" height="21.750140637770528" as="geometry"/>
                </mxCell>
                <mxCell id="32" value="" style="shape=stencil(rVbLbttADPwaXQkuuc9zmv5HgDi1UdcOHPf196XrrBKurAkK9CZLO15yhkNy0ruX7cPzZhJ+OZ+OXzc/d4/n7aSfJpHdYbs57c72NOn9pHdPx9Pmy+n4/fB4/f38cDl5efp2/HH5h19XXAiU2gUl/Pv1DUn+++Lz9fx+d3h3Xgqp+PNKra4DtBL7C0RIZB0QK7XiAMpU2zogNarqAJFJQQ6FSfwNiYlBDtU4YQfIFlJcB7RMNThAyZQZACrl7AGNSgEA+5wcoCplkIMBBlproaYQoD7pJsSA1lbGpFuijFiaP8+AShoAQIkHwAcsLZQ2QEVKF8oyhpQBSzWRDjdkCiBpk6nkkVYkXBVqg9IWEmDJbmDvhxpJEwS8OngGYANZ0sWzVEpX5jag9sqZAbHX75pwQ3kX4w1Vq1IK4w3I0ybTGFLqyqxZNAxJYx2s1OJAq/TmeRMQ2NqQt1zNlFDbaIty5S7NWhLqu3GLlHAni76YzOYQYMW08GhEygUKwwR642GtmuLC1QFMiLrQ2pLg/wkoNtN81qZ1AJ0phz4P5moKkNcUepeYZ1CAMygGit5CSaAQlzHrb4gKAcKUh0kd+yi+HRLFYRUw16ILqPoMbDlpoDCMwWE3adANTMnHH0r3+Mp59vGESALiX9jZti0BXY8p+h5Wcb9YrDFw3MrIjsKpEMe9zdgF/TT1Ha0ft2RAMItdAVt+se3YYAfB/OtW+/F5e3hboZ92+/11A3//fVy57dV1Xdf7Pw==);lineShape=1;fillStyle=solid;strokeColor=#F0110A;fontSize=17;fontColor=#CCCC00;" parent="1" vertex="1">
                    <mxGeometry x="145.3930407722325" y="320.13268403550484" width="25.2195494071251" height="16.415587703023675" as="geometry"/>
                </mxCell>
                <mxCell id="33" value="" style="shape=stencil(lVhbctswDDyNfzEkSILkd5reIzNxGk/TOOM4fdy+UD1UDEjaJn+yxDXxXDx26eb18e5lv+Pwej4dv+9/He7Pj7v0Zcd8eH7cnw5nfdql2126eTie9t9Ox7fn+8vvl7vp5PT04/hz+offF1ztVGVCcfhzeROZWv/35usF8HR4vgYkys0CEoW4DRCmkjyA6zagRBL2AAGAHCgVC8jUACBF6tUCKqWwDWCh3A2AIzUBACaxZuVGCZiVw/g8AKlQaNuA2IbVByAz9QIAZUg8ACUMrdYBmWq2gEoFWEkB3fpB9A1DHdgCaqAOlOZCPViAWgn4IaXxeQZUkgRjyemgGSIgvHP3N7QwhFwPbyG2nm4a8MAPojrYaG1MCVhJug++pn8BQkONmIPXgYHj1CZsU1RpASWQSlytDlKoAqVbJrY0o8FXgacVkK3jssDwVkC0vJSUBABrqBGTzQfuFIGV2oKXlDUKuEH94KmyUUSA5HkpCr6BKVhPa9Im5OlI7ETSaM0YYJVu1NAF7PNHKAI/q8rFRlKiDhJabSpWAYZersqrTmFIGOrk4ixKDfDFlAmulMBapWEqVl+lZfT/ZZhjTk2KwF9NfN50SF9tds9Vw4DoSwWKzkCFGEmUBrtdVWfUMCh/RgdoOAuar2yxwx6mLjh7ugFFnZJL9DpE1FYxZfZWiuiG6Dlb/VBQ4qiVvKMRoer56mottlHy1JJh4VQTuVquiQACTws3O5NSBVVwqtsuKkhAEdTEdGV2dsnmefnE+b4kd4FM0bVjdBfIION1QKdsAUlGBVrvv0JY+ExgEK0gCs5mFarYwNZ+hoFQXUbPeNVbBKQ2jwp21R8VxEhzRZoBDc48ykhi+UKdiXw9xar1hJoBsbC0RZl9t/Q6Ii5k6tCuRWcimw8aYBkkUK6UbcL1Oiaz9Wa7+dKgvkQi8WyUGZBHsdiaktzQ03Gzrc2Ka8G0fqHyn3311PoOxzASR5Ia3UCgRfpoNiB5tIW08hTcN7M/n8ug8Q1926IJLqi98ySmPkT9YwxUHUA9hqbOsrZfQKN28BuMCodO7UfZZn+iiqJ6MetESEclDj4c58Mn9yM48ZcLmDDIZqsOOvsEOD1qN+XqYIAlYRpGfV0OmEyzP4/2FtMk6DYjMCPboq/IuI4X798yiPKD5yvc7CzlaXB1tJx8NYdQ6zgZ1HWCEebkisd4dNAfDAkFoCFkirniAXCr+P81pD68LzEfDk9Plx3o9Xe/9NRXl4Vpuv0L);lineShape=1;fillStyle=solid;strokeColor=#F0110A;fontSize=17;fontColor=#CCCC00;" parent="1" vertex="1">
                    <mxGeometry x="691.2575240424068" y="119.08" width="40.06322054916836" height="35.23016889325447" as="geometry"/>
                </mxCell>
                <mxCell id="34" value="" style="shape=stencil(lVfbcuMwCP0avzISSEh67nb/ozNNN5nNJp003cvfLxmP3IAdPH5zbE6AwxGggZ4+9i/vuwHDx/Vy/rn7c3i97gf6NiAeTvvd5XCVp4GeB3p6O192Py7nz9Pr+Pv95WZ5e/p1/n37h78jjiuUcENh+De+yUDji++j/fFwurdvgEnZxwiMjwElABYFQAImF8DaAzYoxQW0qADEENgBRMgakCrE5AAQUtMkCcALiSyrnIC8kDLEqgBfWS0DGErWgArZobVh/9wBtULzABWQFaBJSPkxIIYAQWfdCGJzXBTImteWITlianEWUwFyPNRoCyFpNV/f1YQk6nM85AKhWECrjwEpzZJukBz1kYiJbQ7osCRHmI0HhuSoD4VWLaYmcnW0gaGTOAGw07AMSMA6h9pcfRNCNIDqekgIrEOq0xFZLlyylRZAcArHBUqyALdtiJaiBTSncMJJTTZpcjxIXYsRX+j9eRkgHnSfkcJ54hOpmZBEGuydaZqFxG77rrn3iDt5e2otadZmGmTHA0cgHdJdq1oWU+0j6r4LOAAqEGd9xqMJRc1aG9LJwgoAtwC4N8ZJS6U3z0X7WfNeGSgyRDdNLIKge8zKSEx2b1iZudkuJitDPVthr2wNctZ1wVbWErY7w9reY5eSlcWqWj79xW0a9hM9XU/L1ZXyarkhVM9eZo6WQ+xT69HIiTp8Xz1CD6OxJ09tCYq1d0+8zC/aYt8gWnsvniz8xA35Ss8KW/hkkb+Ox6+XDLOq+fH1sPmesGovD1+XkrfD8Tjeae6/20uMvBovQPT8Hw==);lineShape=1;fillStyle=solid;strokeColor=#F0110A;fontSize=17;fontColor=#CCCC00;" parent="1" vertex="1">
                    <mxGeometry x="704.4451507313225" y="150.24867051708605" width="7.2045651026611495" height="40.94386130573105" as="geometry"/>
                </mxCell>
                <mxCell id="35" value="" style="shape=stencil(lVbLctswDPwaXTEkwRfOafIfmYlTa+LaGcdJm78PNBqqAm1t2ptM75LAAlhy4Lu3/ePrbgju7XI+vex+j0+X/cA/hhDG4353Hi/6NfD9wHfPp/Pu5/n0fnyaf78+Tsjp69fpY9rhz8yTSL5OrOA+55UQieeVh5lwGI8rQmWSZAjsKJRtQo5UxRBioRy2CSmSY0NIlXzeJkRHyYZUPEXeJoRM3hlC1ZW0TfCRsiWI5gCS9p6qlVWEogBZSewB3jlyDqjUl0EP8HEbz8TZ4jMJCMi3LljwTAXgtQmilVSoAoU0uw6fKIP4HdVg8Z4SwAeKNv5SoZ7apV0PJYoAr/W3XV0i3N87KrbCZZmk2wSmlPuIAhgDry1RLKHAkvmrHFRTNMq+UrKTqUVjlENtGq66IgF30ZDYllnbDpVZk2abg/Z1RXUIVG0OOjgOmIX0k6l4ASnoWPken4CosXnbyloqiMeTdPgI+0jNsVNUiwz2X2xnKVkhB/ePdnCqKozatNe/qP6gS2MfT8nfGJ3IFR71aGrHN0JO2FmkXS7LhSZtkG5nwORsyXjp2q0bkK2mqkIBIWnEnblMNxa4Y9UZusHUHdCtX/pLXO0M7K9jLj0euaOEVqMV3gN8pNDjCyiymkI3ZaG9e27j1Tmtl+qBKJ7a55uhPuoJpbu+oUmsXgNLhUN7k2yeYLtUGx21xJSClWhybzDIk0bWWbQIgghXzy6tArLS/36c/gNBP/6+hZ/Hw2F+Sq//79/OujS/u/n+Cw==);lineShape=1;fillStyle=solid;strokeColor=#F0110A;fontSize=17;fontColor=#CCCC00;" parent="1" vertex="1">
                    <mxGeometry x="680" y="163.44103092338884" width="22.200290072047096" height="15.751098721701851" as="geometry"/>
                </mxCell>
                <mxCell id="36" value="" style="shape=stencil(lVbZbuMwDPwavxISqfO57f5HgaYbo2lSpNnr75deQ11Ttqfom6NwxGs41CB378fHt8PA7v12vbwcfo1Pt+Mg9wPzeD4eruNNvwZ5GOTu+XI9fL9efpyf5t9vj5Pl9PV6+Tnd8HvGVYppArH7Mx84iuHfwbfZ/DSeF+Ys5L2xr+Tdvr0ISTD2PlKRfUAQymwA6tLFfUAM5CxAcAopUOgAhTwIKQeKYgBBcwBJV6FSDSA5CgiQSKyH9FHnbUAhLhaQKRYA0D5HA8jSfG4CvHPknEVUygm7sDGVRIyT6LKunmrFZbJ11ZOIG1EtuzVIRjl4YuthUYdNRCmUsnWhJ6CwWhTpYorN6TYgUOpGzsHWFekBegUDciggdOTIlDMMydscsqeAAJGS9ZASnOqiAXQEZ3KI4FoTO9WxUgUhKTecXwGAbmibOqmcQkLs0xzsBKVIleEEMfdlFTRBGvGqcRFNUKWyogbSbyVz6WbUkUd9yO2+Bb096kPoQ1KfEc0ok+9UoELZKCpM3ANQWb8MSGvpE6gzSrVsy5ojCZiHUHt6q+AHIAKiXLLUUJ8J5KCL3Fl6R9/Uc3tDaNK2cUFbCQZIl6ZVSsktxu2cyXd7WlUEvU0odvdLS2k7gX79aAkSsNcdbgukGSGlXy1Q9Yj24crep6aae/HYDnsmRiu9cfiDpG2Q9spprw9Nkne65exUMtSJ2KiyeHeC2q+kFG/lL75qPzXXj/8P6OfxdJrf38v/+we3Hs2PdXn4Cw==);lineShape=1;fillStyle=solid;strokeColor=#F0110A;fontSize=17;fontColor=#CCCC00;" parent="1" vertex="1">
                    <mxGeometry x="707.1110659753938" y="162.30378449061294" width="27.194710937428" height="11.187393861770829" as="geometry"/>
                </mxCell>
                <mxCell id="37" value="" style="shape=stencil(lVbLctswDPwaXTEgwec5Tf8jM3FqTV074zh9/H2haqgYlLST3mQaSwJYLIBBHt6OT6+HwfPb7Xr5fvg1Pt+Og3wZvB/Px8N1vOnXII+DPLxcrodv18v7+Xn+/fo0WU5fPy4/pxt+z7iaybkJ5fnPfOIiSfh38nUGnMbzHSBn4mgA4onrPiDpfdkAgpAHgBgoFAPQE5F9gN5XbAwfb24ChKnYGDSqAl5wGnQygJpaGrYBgaoNuhZywCXnW04WQKUIeKgkbHljJmbAA4lfPeBAkijFVQQoRxQtazVSBTTzyh9pJzv2bAOuTAHEy5QsAyVTBP4rAcHaR2JUdRRtfoqQQ8LpZVB8K6rtfGqCbEUURxUQ5qQvCX0hI0Ck0gEC1I3KIFnOSsIvFIpd0Fp0gLQJ0AnNUwBZVZfWZedx0NnyrC0QCU3T6qUXjiuYONcDKmgWeUP6GTyw6o+qzATsPbnufmUN0KzK6TIUyAP/18p0JMAfbgNmKYpCASlhVXVL4X7eHldpJxydHwm1Rm58LhNK8IRSqVvK9CSAlOp9yRadOKgD9bjaGKY0A5dU6tlK02P71Pc7B8e+chpt1XHL8vY8494fPM60L3QcMHkwPrQtsO/sK5qvqd8RfNuUtu1LX9UCRaka79p7bAnes6+2M2ZYo3frwCLL1vn2HojdJuigbDTiaGtUW2VGFPzvrvkJgH58rLYv4+k0b8b3//ersB7Na7Q8/gU=);lineShape=1;fillStyle=solid;strokeColor=#F0110A;fontSize=17;fontColor=#CCCC00;" parent="1" vertex="1">
                    <mxGeometry x="692.0224987796365" y="192.49605342959404" width="21.09947442230566" height="21.750140637770528" as="geometry"/>
                </mxCell>
                <mxCell id="38" value="" style="shape=stencil(rVbLbttADPwaXQkuuc9zmv5HgDi1UdcOHPf196XrrBKurAkK9CZLO15yhkNy0ruX7cPzZhJ+OZ+OXzc/d4/n7aSfJpHdYbs57c72NOn9pHdPx9Pmy+n4/fB4/f38cDl5efp2/HH5h19XXAiU2gUl/Pv1DUn+++Lz9fx+d3h3Xgqp+PNKra4DtBL7C0RIZB0QK7XiAMpU2zogNarqAJFJQQ6FSfwNiYlBDtU4YQfIFlJcB7RMNThAyZQZACrl7AGNSgEA+5wcoCplkIMBBlproaYQoD7pJsSA1lbGpFuijFiaP8+AShoAQIkHwAcsLZQ2QEVKF8oyhpQBSzWRDjdkCiBpk6nkkVYkXBVqg9IWEmDJbmDvhxpJEwS8OngGYANZ0sWzVEpX5jag9sqZAbHX75pwQ3kX4w1Vq1IK4w3I0ybTGFLqyqxZNAxJYx2s1OJAq/TmeRMQ2NqQt1zNlFDbaIty5S7NWhLqu3GLlHAni76YzOYQYMW08GhEygUKwwR642GtmuLC1QFMiLrQ2pLg/wkoNtN81qZ1AJ0phz4P5moKkNcUepeYZ1CAMygGit5CSaAQlzHrb4gKAcKUh0kd+yi+HRLFYRUw16ILqPoMbDlpoDCMwWE3adANTMnHH0r3+Mp59vGESALiX9jZti0BXY8p+h5Wcb9YrDFw3MrIjsKpEMe9zdgF/TT1Ha0ft2RAMItdAVt+se3YYAfB/OtW+/F5e3hboZ92+/11A3//fVy57dV1Xdf7Pw==);lineShape=1;fillStyle=solid;strokeColor=#F0110A;fontSize=17;fontColor=#CCCC00;" parent="1" vertex="1">
                    <mxGeometry x="708.1830407722325" y="194.38268403550484" width="25.2195494071251" height="16.415587703023675" as="geometry"/>
                </mxCell>
                <mxCell id="39" value="" style="edgeStyle=none;orthogonalLoop=1;jettySize=auto;html=1;fontSize=17;fontColor=#CCCC00;entryX=0;entryY=0.5;entryDx=0;entryDy=0;" parent="1" target="3" edge="1">
                    <mxGeometry width="80" relative="1" as="geometry">
                        <mxPoint x="180" y="100" as="sourcePoint"/>
                        <mxPoint x="280" y="88.88999999999999" as="targetPoint"/>
                        <Array as="points"/>
                    </mxGeometry>
                </mxCell>
                <mxCell id="40" value="" style="edgeStyle=none;orthogonalLoop=1;jettySize=auto;html=1;fontSize=17;fontColor=#CCCC00;exitX=0.923;exitY=0.993;exitDx=0;exitDy=0;exitPerimeter=0;" parent="1" source="18" target="4" edge="1">
                    <mxGeometry width="80" relative="1" as="geometry">
                        <mxPoint x="210" y="110" as="sourcePoint"/>
                        <mxPoint x="361.52" y="84.44999999999999" as="targetPoint"/>
                        <Array as="points"/>
                    </mxGeometry>
                </mxCell>
                <mxCell id="41" value="" style="edgeStyle=none;orthogonalLoop=1;jettySize=auto;html=1;fontSize=17;fontColor=#CCCC00;entryX=0;entryY=0.5;entryDx=0;entryDy=0;" parent="1" target="6" edge="1">
                    <mxGeometry width="80" relative="1" as="geometry">
                        <mxPoint x="176.1" y="100.88999999999999" as="sourcePoint"/>
                        <mxPoint x="366.1" y="74" as="targetPoint"/>
                        <Array as="points"/>
                    </mxGeometry>
                </mxCell>
                <mxCell id="42" value="" style="edgeStyle=none;orthogonalLoop=1;jettySize=auto;html=1;fontSize=17;fontColor=#CCCC00;entryX=0;entryY=0.75;entryDx=0;entryDy=0;" parent="1" target="3" edge="1">
                    <mxGeometry width="80" relative="1" as="geometry">
                        <mxPoint x="170.61" y="296.89" as="sourcePoint"/>
                        <mxPoint x="360.61" y="270" as="targetPoint"/>
                        <Array as="points"/>
                    </mxGeometry>
                </mxCell>
                <mxCell id="43" value="" style="edgeStyle=none;orthogonalLoop=1;jettySize=auto;html=1;fontSize=17;fontColor=#CCCC00;entryX=0;entryY=0.5;entryDx=0;entryDy=0;" parent="1" target="7" edge="1">
                    <mxGeometry width="80" relative="1" as="geometry">
                        <mxPoint x="170.61" y="296.89" as="sourcePoint"/>
                        <mxPoint x="360.61" y="270" as="targetPoint"/>
                        <Array as="points"/>
                    </mxGeometry>
                </mxCell>
                <mxCell id="45" value="" style="edgeStyle=none;orthogonalLoop=1;jettySize=auto;html=1;fontSize=17;fontColor=#CCCC00;entryX=1;entryY=0.5;entryDx=0;entryDy=0;exitX=-0.135;exitY=0.797;exitDx=0;exitDy=0;exitPerimeter=0;" parent="1" source="35" target="3" edge="1">
                    <mxGeometry width="80" relative="1" as="geometry">
                        <mxPoint x="590" y="150.25" as="sourcePoint"/>
                        <mxPoint x="670" y="150.25" as="targetPoint"/>
                        <Array as="points"/>
                    </mxGeometry>
                </mxCell>
                <mxCell id="46" value="" style="edgeStyle=none;orthogonalLoop=1;jettySize=auto;html=1;fontSize=17;fontColor=#CCCC00;entryX=1;entryY=0.5;entryDx=0;entryDy=0;exitX=-0.135;exitY=0.797;exitDx=0;exitDy=0;exitPerimeter=0;" parent="1" target="4" edge="1">
                    <mxGeometry width="80" relative="1" as="geometry">
                        <mxPoint x="680.0029608402735" y="179.1946566045852" as="sourcePoint"/>
                        <mxPoint x="519" y="65.2" as="targetPoint"/>
                        <Array as="points"/>
                    </mxGeometry>
                </mxCell>
                <mxCell id="47" value="" style="edgeStyle=none;orthogonalLoop=1;jettySize=auto;html=1;fontSize=17;fontColor=#CCCC00;entryX=1;entryY=0.5;entryDx=0;entryDy=0;" parent="1" target="6" edge="1">
                    <mxGeometry width="80" relative="1" as="geometry">
                        <mxPoint x="680" y="180" as="sourcePoint"/>
                        <mxPoint x="530" y="115" as="targetPoint"/>
                        <Array as="points"/>
                    </mxGeometry>
                </mxCell>
                <mxCell id="48" value="" style="edgeStyle=none;orthogonalLoop=1;jettySize=auto;html=1;fontSize=17;fontColor=#CCCC00;entryX=1;entryY=0.5;entryDx=0;entryDy=0;" parent="1" target="7" edge="1">
                    <mxGeometry width="80" relative="1" as="geometry">
                        <mxPoint x="680" y="180" as="sourcePoint"/>
                        <mxPoint x="530" y="165" as="targetPoint"/>
                        <Array as="points"/>
                    </mxGeometry>
                </mxCell>
                <mxCell id="49" value="" style="edgeStyle=none;orthogonalLoop=1;jettySize=auto;html=1;fontSize=17;fontColor=#CCCC00;entryX=1;entryY=0.25;entryDx=0;entryDy=0;" parent="1" target="8" edge="1">
                    <mxGeometry width="80" relative="1" as="geometry">
                        <mxPoint x="680" y="180" as="sourcePoint"/>
                        <mxPoint x="530" y="215" as="targetPoint"/>
                        <Array as="points"/>
                    </mxGeometry>
                </mxCell>
                <mxCell id="50" value="" style="edgeStyle=none;orthogonalLoop=1;jettySize=auto;html=1;fontSize=17;fontColor=#CCCC00;entryX=1;entryY=0.25;entryDx=0;entryDy=0;" parent="1" target="9" edge="1">
                    <mxGeometry width="80" relative="1" as="geometry">
                        <mxPoint x="680" y="180" as="sourcePoint"/>
                        <mxPoint x="530" y="257.5" as="targetPoint"/>
                        <Array as="points"/>
                    </mxGeometry>
                </mxCell>
                <mxCell id="53" value="User" style="text;html=1;align=center;verticalAlign=middle;resizable=0;points=[];autosize=1;strokeColor=none;fillColor=none;fontSize=17;fontColor=#CCCC00;" parent="1" vertex="1">
                    <mxGeometry x="123.08" y="143.49" width="60" height="30" as="geometry"/>
                </mxCell>
                <mxCell id="54" value="Visitor" style="text;html=1;align=center;verticalAlign=middle;resizable=0;points=[];autosize=1;strokeColor=none;fillColor=none;fontSize=17;fontColor=#CCCC00;" parent="1" vertex="1">
                    <mxGeometry x="113.5" y="340" width="70" height="30" as="geometry"/>
                </mxCell>
                <mxCell id="55" value="Admin" style="text;html=1;align=center;verticalAlign=middle;resizable=0;points=[];autosize=1;strokeColor=none;fillColor=none;fontSize=17;fontColor=#CCCC00;" parent="1" vertex="1">
                    <mxGeometry x="680" y="210.8" width="70" height="30" as="geometry"/>
                </mxCell>
            </root>
        </mxGraphModel>
    </diagram>
</mxfile>